<?xml version="1.0" encoding="utf-8"?>
<!-- Generator: Adobe Illustrator 23.1.0, SVG Export Plug-In . SVG Version: 6.00 Build 0)  -->
<svg version="1.1" id="レイヤー_1" xmlns="http://www.w3.org/2000/svg" xmlns:xlink="http://www.w3.org/1999/xlink" x="0px"
	 y="0px" viewBox="0 0 200.1 31.1" style="enable-background:new 0 0 200.1 31.1;" xml:space="preserve">
<g>
	<g>
		<g>
			<g>
				<path d="M112.3,21.1h2.5v-3.6H112v-2.6h3.8v-3.6H112V8.6h2.5V4.9H98.3c0.3-0.4,0.6-0.8,0.8-1.2l-3.8-1.8c-1,1.5-2.3,3.1-3.8,4.6
					c-0.8,0.8-1.6,1.5-2.3,2.1l3.4,2.3c0.4-0.3,0.8-0.6,1.2-1v1.5h-3.7v3.6h3.7v2.6H91v3.6h2.5c-0.9,1.8-2.5,3.9-3.6,4.9l3.3,2.5
					c1.6-1.5,3.1-3.6,4.2-6.1L95,21.1h16.3l-2.6,1.5c1.3,1.7,2.8,3.9,3.6,5.7l3.6-1.8C115.2,24.9,113.7,22.6,112.3,21.1z M108,17.6
					h-1v-2.6h1V17.6z M103.4,14.9v2.6h-1.1v-2.6H103.4z M102.3,11.4V8.6h1.1v2.8C103.4,11.4,102.3,11.4,102.3,11.4z M108,11.4h-1
					V8.6h1V11.4z M97.6,8.6h1v2.8h-1V8.6z M97.6,14.9h1v2.6h-1V14.9z"/>
				<path d="M98.1,22.3c0.6,1.3,1.5,4.7,1.5,5.8l3.9-0.9c-0.4-2.6-0.9-4.1-1.8-5.8L98.1,22.3z"/>
				<path d="M103.3,22.6c0.7,1.2,2,4.3,2.1,5.6l4-1c-0.5-2.4-1.3-4-2.3-5.6L103.3,22.6z"/>
			</g>
			<path d="M144.2,5.3h-12.1V6l-2.5-2.3c-2,1.2-5.2,2.2-8.8,2.7c0,0-0.1,0-0.1,0v20.9h4.3v-1.4h6.5v-4.2h-6.5v-4.9h6.5v-3.9h-6.5
				V9.4c2.8-0.6,5.3-1.4,7.2-2.4v21.5h4.3V9.3h3.5v12.3H137l1.4,4.4h2.1c2,0,3.6-1.5,3.6-3.4C144.2,22.3,144.2,5.3,144.2,5.3z"/>
			<path d="M166.4,22.3c0.3-0.3,0.7-0.6,1-1c1.2-1.2,2.2-2.4,3-3.5l-1.2-1.1V5.5h-7.2V2.2h-4.6v3.3h-7.3v18.3c0,0,0,0,0,0
				c-0.9,0.2-1.8,0.4-2.6,0.5l0.9,4.4c0.5-0.1,0.9-0.2,1.4-0.3c4-0.9,7.5-2.1,10.4-3.2l0-2.7c2.6,2.8,6.3,5.2,10.5,6.5l2.3-3.8
				C170.3,24.4,168.2,23.4,166.4,22.3z M164.6,13.9h-10v-0.9h10V13.9z M165.3,17.6c-0.3,0.4-0.7,0.8-1.1,1.3c-0.3,0.3-0.6,0.7-0.9,1
				c-0.7-0.7-1.2-1.5-1.6-2.2C161.7,17.6,165.3,17.6,165.3,17.6z M164.6,9v1h-10V9H164.6z M154.6,22.7v-5.1h2.2
				c0.5,1.3,1.3,2.5,2.3,3.7C157.7,21.8,156.2,22.3,154.6,22.7z"/>
			<g>
				<path d="M195.3,4.1L195.3,4.1h-15v10.7h15L195.3,4.1z M184.4,7.6h6.7v3.5h-6.7C184.4,11.1,184.4,7.6,184.4,7.6z"/>
				<path d="M175.5,16v12.5h4.1v-0.9h3.3v0.9h4.1V16h0H175.5z M179.7,24.1v-4.4h3.3v4.4H179.7z"/>
				<path d="M200.1,16h-11.8v12.5h4.2v-0.9h3.3v0.9h4.2L200.1,16L200.1,16z M192.6,24.1v-4.4h3.3v4.4H192.6z"/>
			</g>
		</g>
		<g>
			<g>
				<polygon points="76.3,30.5 69.1,30.5 69.1,0 76.3,0 				"/>
				<polygon points="19.3,8.7 15.2,30.5 10.1,30.5 5.9,8.7 5.9,30.5 0.1,30.5 0.1,0 9,0 12.6,19.1 16.2,0 25.4,0 25.4,30.5 
					19.3,30.5 				"/>
			</g>
			<path d="M47.7,22.9c0,5.3-4.3,8.3-9.6,8.3c-5.3,0-9.6-3.1-9.6-8.3l0-22.9h7.2l0,22.8c0,1.3,1.1,2.4,2.4,2.4
				c1.3,0,2.4-1.1,2.4-2.4l0-22.8h7.2L47.7,22.9z"/>
			<path d="M66,23.9c0,4.6-3.8,7.4-8.4,7.4c-4.6,0-8.4-2.8-8.4-7.4c0-1.1,0-2.8,0-4.5l6.4,0v4.5c0,0.9,0.7,1.6,1.6,1.6
				c0.9,0,1.6-0.7,1.6-1.6l0-23.8H66L66,23.9z"/>
		</g>
	</g>
</g>
</svg>
