<?xml version="1.0" encoding="utf-8"?>
<!-- Generator: Adobe Illustrator 23.1.0, SVG Export Plug-In . SVG Version: 6.00 Build 0)  -->
<svg version="1.1" id="레이어_1" xmlns="http://www.w3.org/2000/svg" xmlns:xlink="http://www.w3.org/1999/xlink" x="0px"
	 y="0px" viewBox="0 0 24 25" style="enable-background:new 0 0 24 25;" xml:space="preserve">
<style type="text/css">
	.st0{fill:none;stroke:#7F0019;stroke-width:2;stroke-miterlimit:10;}
	.st1{display:none;}
	.st2{display:inline;fill:none;stroke:#7F0019;stroke-width:3;stroke-miterlimit:10;}
	.st3{fill:none;stroke:#7F0019;stroke-width:3;stroke-miterlimit:10;}
	.st4{display:inline;fill:none;stroke:#A7A7A7;stroke-width:2;stroke-miterlimit:10;}
	.st5{display:none;fill:none;stroke:#7F0019;stroke-width:2;stroke-miterlimit:10;}
	.st6{display:none;fill:none;stroke:#F1F1F1;stroke-miterlimit:10;}
</style>
<g>
	<rect x="4" y="10" class="st0" width="15" height="10"/>
	<path class="st0" d="M21,7"/>
	<path class="st0" d="M17,10"/>
	<line class="st0" x1="4" y1="14" x2="18" y2="14"/>
	<line class="st0" x1="9" y1="11" x2="9" y2="24"/>
	<line class="st0" x1="6" y1="24" x2="10" y2="24"/>
	<line class="st0" x1="15" y1="21" x2="15" y2="25"/>
	<line class="st0" x1="12" y1="24" x2="15" y2="24"/>
	<line class="st0" x1="17.8" y1="9.8" x2="21.1" y2="7.2"/>
	<line class="st0" x1="19.9" y1="7.1" x2="22" y2="8.9"/>
</g>
<g class="st1">
	<g>
		<line class="st2" x1="5" y1="14.7" x2="21" y2="14.7"/>
		<line class="st3" x1="13" y1="6.7" x2="13" y2="22.7"/>
	</g>
	<circle class="st4" cx="8.3" cy="17.8" r="2.5"/>
	<circle class="st4" cx="17.8" cy="9.3" r="2"/>
	<circle class="st4" cx="17.8" cy="22.3" r="3"/>
	<line class="st4" x1="9.8" y1="16.3" x2="15.8" y2="11.3"/>
	<line class="st4" x1="9.8" y1="19.3" x2="15.8" y2="21.3"/>
</g>
<path class="st5" d="M13,10.5C13,10.5,13,10.5,13,10.5c-1.9-3.4-10.5-4.9-7.8,5.3c1,3.6,5.9,7.6,7.5,8.2c0,0.1,0.1,0.1,0.2,0.1
	c0.1,0,0.2,0,0.2-0.1c1.6-0.6,6.6-4.6,7.5-8.2C23.4,5.6,14.8,7.1,13,10.5z"/>
<line class="st6" x1="-1.5" y1="15.8" x2="28.5" y2="15.9"/>
<line class="st6" x1="16.1" y1="7.5" x2="28.1" y2="15.9"/>
<line class="st6" x1="27.9" y1="15.8" x2="15.9" y2="24.2"/>
<line class="st6" x1="16.1" y1="24.2" x2="28.1" y2="15.8"/>
</svg>
