<?xml version="1.0" encoding="utf-8"?>
<!-- Generator: Adobe Illustrator 23.1.0, SVG Export Plug-In . SVG Version: 6.00 Build 0)  -->
<svg version="1.1" id="레이어_1" xmlns="http://www.w3.org/2000/svg" xmlns:xlink="http://www.w3.org/1999/xlink" x="0px"
	 y="0px" viewBox="0 0 20 20" style="enable-background:new 0 0 20 20;" xml:space="preserve">
<style type="text/css">
	.st0{fill:none;stroke:#A7A7A7;stroke-width:1.5;stroke-miterlimit:10;}
	.st1{fill:#A7A7A7;stroke:#A7A7A7;stroke-width:1.5;stroke-miterlimit:10;}
</style>
<g>
	<path class="st0" d="M14.7,17.8H6.1c-1.5,0-2.7-1.2-2.7-2.7V9.5c0-1.5,1.2-2.7,2.7-2.7h8.6c1.5,0,2.7,1.2,2.7,2.7V15
		C17.4,16.5,16.2,17.8,14.7,17.8z"/>
	<path class="st0" d="M6.8,2.8"/>
	<path class="st0" d="M5.9,2.8"/>
	<ellipse class="st1" cx="10.5" cy="13.5" rx="1.5" ry="1.2"/>
	<path class="st0" d="M10.5,12.3c0,0,0-3,0-2.4"/>
	<line class="st0" x1="8.3" y1="2.8" x2="12.5" y2="2.8"/>
	<g>
		<path class="st0" d="M13.9,6.8c0,0,0.4-4-1.5-4"/>
		<path class="st0" d="M6.9,6.8c0,0-0.4-4,1.5-4"/>
	</g>
</g>
</svg>
