<?xml version="1.0" encoding="utf-8"?>
<!-- Generator: Adobe Illustrator 23.1.0, SVG Export Plug-In . SVG Version: 6.00 Build 0)  -->
<svg version="1.1" id="레이어_1" xmlns="http://www.w3.org/2000/svg" xmlns:xlink="http://www.w3.org/1999/xlink" x="0px"
	 y="0px" viewBox="0 0 47 26" style="enable-background:new 0 0 47 26;" xml:space="preserve">
<style type="text/css">
	.st0{display:none;}
	.st1{display:inline;fill:none;stroke:#A7A7A7;stroke-width:2;stroke-miterlimit:10;}
	.st2{fill:#7F0019;stroke:#7F0019;stroke-width:2;stroke-miterlimit:10;}
	.st3{display:none;fill:none;stroke:#7F0019;stroke-width:2;stroke-miterlimit:10;}
</style>
<g class="st0">
	<path class="st1" d="M19.6,24H9.8c-2.2,0-4-1.8-4-4V9h17.8v11C23.6,22.2,21.8,24,19.6,24z"/>
	<path class="st1" d="M25.3,4.1"/>
	<path class="st1" d="M20.8,7.2"/>
	<line class="st1" x1="10" y1="13.6" x2="24.1" y2="13.6"/>
	<path class="st1" d="M21-1"/>
	<path class="st1" d="M20.1,9c-3.6,0-7.3,0-10.9,0c-0.1-0.3-0.8-2.9,1.1-5c0.3-0.4,1.9-2,4.4-2c2.5,0,4,1.6,4.4,2
		C20.9,6.1,20.2,8.7,20.1,9z"/>
</g>
<path class="st2" d="M23.6,6.1c0,0.1-0.1,0.1-0.1,0c-2.2-4.2-13.1-6.1-9.7,6.6c1.2,4.5,7.5,9.6,9.4,10.3c0,0.1,0.1,0.1,0.3,0.1
	c0.2,0,0.3,0,0.3-0.1c2-0.7,8.2-5.8,9.4-10.3C36.6,0,25.8,1.8,23.6,6.1z"/>
<path class="st3" d="M33.5,2c-2.8,5.2-4,7.4-4.2,7.5c0,0,0,0,0,0c0,0.2,3.8,0.8,8.5,1.5"/>
<line class="st3" x1="30.3" y1="9.3" x2="43" y2="3.1"/>
</svg>
